<?xml version="1.0" encoding="UTF-8" standalone="no"?>
<svg width="20px" height="20px" viewBox="0 0 20 20" version="1.1" xmlns="http://www.w3.org/2000/svg" xmlns:xlink="http://www.w3.org/1999/xlink">
    <!-- Generator: Sketch 47.1 (45422) - http://www.bohemiancoding.com/sketch -->
    <title>icon-warning</title>
    <desc>Created with Sketch.</desc>
    <defs></defs>
    <g id="Page-1" stroke="none" stroke-width="1" fill="none" fill-rule="evenodd">
        <g id="Alerts---Notifications" transform="translate(-112.000000, -183.000000)" stroke="#979797">
            <g id="Group-2" transform="translate(96.000000, 162.000000)">
                <g id="icon-warning" transform="translate(16.000000, 20.000000)">
                    <path d="M11.7888544,3.57770876 L18.5527864,17.1055728 L18.5527864,17.1055728 C19.0467649,18.0935298 18.6463162,19.2948759 17.6583592,19.7888544 C17.3806483,19.9277098 17.0744222,20 16.763932,20 L3.23606798,20 L3.23606798,20 C2.13149848,20 1.23606798,19.1045695 1.23606798,18 C1.23606798,17.6895098 1.30835816,17.3832837 1.4472136,17.1055728 L8.21114562,3.57770876 L8.21114562,3.57770876 C8.70512412,2.58975177 9.9064702,2.18930308 10.8944272,2.68328157 C11.281482,2.87680898 11.595327,3.19065396 11.7888544,3.57770876 Z" id="Triangle"></path>
                    <path d="M10,7.5 L10,12.5" id="Line" stroke-width="2" stroke-linecap="square"></path>
                    <path d="M10,15.5 L10,16.5" id="Line" stroke-width="2" stroke-linecap="square"></path>
                </g>
            </g>
        </g>
    </g>
</svg>